Coordinates
version=1
nRows=14
nColumns=24
inDegrees=yes

Units are S.I. units (second, meters, Newtons, ...)
Angles are in degrees.

endheader
time	pelvis_tilt	pelvis_list	pelvis_rotation	pelvis_tx	pelvis_ty	pelvis_tz	hip_flexion_r	hip_adduction_r	hip_rotation_r	knee_angle_r	ankle_angle_r	subtalar_angle_r	mtp_angle_r	hip_flexion_l	hip_adduction_l	hip_rotation_l	knee_angle_l	ankle_angle_l	subtalar_angle_l	mtp_angle_l	lumbar_extension	lumbar_bending	lumbar_rotation
4.82000000	4.84455933	-1.84559258	-0.77772078	0.60102028	1.04559875	-0.02160049	25.77135498	-2.90617367	-6.95037445	-45.21626819	15.02108978	-0.00000082	0.00000000	3.98094914	1.38076320	0.20135362	-12.30600546	10.61765689	0.00000249	0.00000000	-19.54310531	-0.47001089	-4.72635202
4.83000000	4.84455933	-1.84559258	-0.77772078	0.60102028	1.04559875	-0.02160049	26.09242780	-2.90617367	-6.95037445	-42.66130973	14.99154859	-0.00000082	0.00000000	3.40266311	1.38076320	0.20135362	-12.38705507	11.18572318	0.00000249	0.00000000	-19.54310531	-0.47001089	-4.72635202
4.84000000	4.84455933	-1.84559258	-0.77772078	0.60102028	1.04559875	-0.02160049	26.30654499	-2.90617367	-6.95037445	-39.93297304	14.86338793	-0.00000082	0.00000000	2.79526746	1.38076320	0.20135362	-12.45846662	11.73198383	0.00000249	0.00000000	-19.54310531	-0.47001089	-4.72635202
4.85000000	4.84455933	-1.84559258	-0.77772078	0.60102028	1.04559875	-0.02160049	26.42419626	-2.90617367	-6.95037445	-37.04635288	14.64670908	-0.00000082	0.00000000	2.15629297	1.38076320	0.20135362	-12.50312416	12.24491068	0.00000249	0.00000000	-19.54310531	-0.47001089	-4.72635202
4.86000000	4.84455933	-1.84559258	-0.77772078	0.60102028	1.04559875	-0.02160049	26.45977839	-2.90617367	-6.95037445	-34.02846321	14.36058515	-0.00000082	0.00000000	1.48760301	1.38076320	0.20135362	-12.51062096	12.71363253	0.00000249	0.00000000	-19.54310531	-0.47001089	-4.72635202
4.87000000	4.84455933	-1.84559258	-0.77772078	0.60102028	1.04559875	-0.02160049	26.43046392	-2.90617367	-6.95037445	-30.91881652	14.03107945	-0.00000082	0.00000000	0.79507483	1.38076320	0.20135362	-12.47842469	13.12944645	0.00000249	0.00000000	-19.54310531	-0.47001089	-4.72635202
4.88000000	4.84455933	-1.84559258	-0.77772078	0.60102028	1.04559875	-0.02160049	26.35486919	-2.90617367	-6.95037445	-27.76888996	13.68803080	-0.00000082	0.00000000	0.08780655	1.38076320	0.20135362	-12.41200287	13.48734754	0.00000249	0.00000000	-19.54310531	-0.47001089	-4.72635202
4.89000000	4.84455933	-1.84559258	-0.77772078	0.60102028	1.04559875	-0.02160049	26.25166676	-2.90617367	-6.95037445	-24.64043003	13.36106629	-0.00000082	0.00000000	-0.62298118	1.38076320	0.20135362	-12.32403520	13.78736851	0.00000249	0.00000000	-19.54310531	-0.47001089	-4.72635202
4.90000000	4.84455933	-1.84559258	-0.77772078	0.60102028	1.04559875	-0.02160049	26.13827360	-2.90617367	-6.95037445	-21.60265853	13.07541144	-0.00000082	0.00000000	-1.32517014	1.38076320	0.20135362	-12.23294077	14.03551505	0.00000249	0.00000000	-19.54310531	-0.47001089	-4.72635202
4.91000000	4.84455933	-1.84559258	-0.77772078	0.60102028	1.04559875	-0.02160049	26.02972346	-2.90617367	-6.95037445	-18.72856234	12.84810095	-0.00000082	0.00000000	-2.00693692	1.38076320	0.20135362	-12.16099427	14.24409371	0.00000249	0.00000000	-19.54310531	-0.47001089	-4.72635202
4.92000000	4.84455933	-1.84559258	-0.77772078	0.60102028	1.04559875	-0.02160049	25.93780478	-2.90617367	-6.95037445	-16.09056117	12.68515075	-0.00000082	0.00000000	-2.65778879	1.38076320	0.20135362	-12.13230447	14.43125393	0.00000249	0.00000000	-19.54310531	-0.47001089	-4.72635202
4.93000000	4.84455933	-1.84559258	-0.77772078	0.60102028	1.04559875	-0.02160049	25.87051466	-2.90617367	-6.95037445	-13.75593354	12.58014258	-0.00000082	0.00000000	-3.26935959	1.38076320	0.20135362	-12.17089186	14.61960834	0.00000249	0.00000000	-19.54310531	-0.47001089	-4.72635202
4.94000000	4.84455933	-1.84559258	-0.77772078	0.60102028	1.04559875	-0.02160049	25.83184604	-2.90617367	-6.95037445	-11.78242691	12.51450737	-0.00000082	0.00000000	-3.83591807	1.38076320	0.20135362	-12.29904717	14.83386456	0.00000249	0.00000000	-19.54310531	-0.47001089	-4.72635202
4.95000000	4.84455933	-1.84559258	-0.77772078	0.60102028	1.04559875	-0.02160049	25.82189261	-2.90617367	-6.95037445	-10.21447361	12.45958617	-0.00000082	0.00000000	-4.35456826	1.38076320	0.20135362	-12.53609015	15.09750622	0.00000249	0.00000000	-19.54310531	-0.47001089	-4.72635202
